<svg width="682" height="624" viewBox="0 0 682 624" fill="none" xmlns="http://www.w3.org/2000/svg">
<path d="M57.6926 1.78851C44.0926 -3.41149 22.3593 3.95518 13.1926 8.28851C-14.8074 36.1193 8.19261 36.5514 23.1926 33.2885C30.0259 32.1218 46.4926 31.8885 57.6926 40.2885C60.1361 42.1211 62.6703 45.8688 65.1394 51C73.9879 69.3887 82 105.545 82 135C82 185.5 76.3926 287.789 87.1926 327.789C91.7071 344.509 100.807 361.341 110.957 377.5C131.16 409.662 155.527 439.155 156.193 459.789C157.193 490.789 153.193 473.289 162.193 508.289C171.193 543.289 164.193 528.789 162.193 566.289C160.593 596.289 150.859 616.789 146.193 623.289H186.193V594.789L201.693 566.289C201.693 576.289 196.359 608.455 193.693 623.289H226.693C223.693 623.289 219.493 616.489 226.693 589.289C233.893 562.089 235.026 523.955 234.693 508.289C259.893 519.089 295.193 526.455 309.693 528.789C309.693 564.789 314.193 573.289 316.693 594.789C318.693 611.989 305.526 620.955 298.693 623.289H332.693C336.359 617.955 343.693 604.789 343.693 594.789V553.789C348.693 563.622 358.693 585.589 358.693 594.789C358.693 603.989 348.693 617.622 343.693 623.289H378.193C390.693 606.289 379.193 567.789 378.193 553.789C377.393 542.589 384.526 524.122 388.193 516.289C397.359 508.789 425.893 496.689 466.693 508.289C505.919 519.441 617.922 513.616 675.086 508.855C560.917 514.632 267.833 336.789 224.693 336.789C180.693 336.789 161.193 326.789 146.193 302.789C131.193 278.789 141.693 219.789 132.693 129.789C123.693 39.7885 74.6926 8.28851 57.6926 1.78851Z" fill="#68AFF0"/>
<path d="M72 67.5C79.5 70.8333 95 84.8 97 114C99.5 150.5 92 289.5 97 306.5C101.885 323.111 107.726 371.227 112.188 378.553C112.294 378.705 112.398 378.854 112.5 379C112.397 378.874 112.293 378.725 112.188 378.553C103.911 366.624 87.3699 338.749 85 319C80.74 283.5 81 251.5 81 215.5C81 183.5 83.5 131.5 81 106.5C79.45 91 77 88 72 67.5Z" fill="#AACFF0"/>
<path d="M335 525C336.6 531.4 341.333 547 343.5 554V600C343.5 603.6 335.5 616.5 331.5 622.5H300.5C306 621 312.5 612 316 606.5C319.5 601 314 583.5 312.5 571.5C311.3 561.9 310 538.833 309.5 528.5C315.1 531.3 328.833 527.333 335 525Z" fill="#5582AC"/>
<path d="M220 512.5C216.4 518.9 206.167 549.5 201.5 564C201.5 572 196.5 606.333 194 622.5H223C222 618.167 220.6 607.6 223 600C226 590.5 220 606.5 228.5 576C235.3 551.6 234.667 519.833 233.5 507C230.5 506.167 223.6 506.1 220 512.5Z" fill="#5582AC"/>
</svg>
