<svg width="605" height="362" viewBox="0 0 605 362" fill="none" xmlns="http://www.w3.org/2000/svg">
<path d="M3.57702 189C11.7437 181.667 30.377 166.8 39.577 166C51.077 165 87.077 184 97.577 175C108.077 166 192.077 98.5 239.577 92C287.077 85.5 357.577 97 368.077 102.5C378.577 108 415.077 136 441.077 151C467.077 166 525.577 223 604.577 219C593.244 227.667 567.777 245.4 556.577 247C542.577 249 445.577 244.5 426.077 240.5C410.477 237.3 399.244 236.167 395.577 236C377.577 250.333 339.277 282.5 330.077 296.5C318.577 314 305.577 347 305.577 352.5C305.577 356.9 279.577 354.333 266.577 352.5C271.577 349.333 281.577 338.9 281.577 322.5V290C281.577 282.5 259.077 285 239.577 285C223.977 285 215.077 288.333 212.577 290C209.244 301.5 201.977 327.3 199.577 338.5L159.077 345C163.41 339.167 172.477 325.4 174.077 317C176.077 306.5 162.577 276.5 164.577 265.5C144.91 250 98.977 219 72.577 219C46.177 219 24.2437 215.333 16.577 213.5C7.91036 218 -6.82298 219.4 3.57702 189Z" fill="#A38787"/>
<path d="M182.577 118L163.077 86C167.91 78 178.577 58 182.577 42L188.077 23C192.41 25.3333 202.577 31.2 208.577 36C214.577 40.8 227.744 50 233.577 54C234.41 55.5 236.377 62.6 237.577 79C239.077 99.5 218.577 110.5 182.577 118Z" fill="#844A4A"/>
<path d="M125.077 157.5L104.077 133C106.91 128.333 112.677 116.7 113.077 107.5C113.477 98.3 113.244 85.6667 113.077 80.5C119.91 83.6667 136.177 91 146.577 95L163.077 99.5V133C162.744 136.833 154.677 147.1 125.077 157.5Z" fill="#844A4A"/>
<path d="M88.0771 178C81.0771 171.167 67.5771 156 69.5771 150C72.0771 142.5 80.0771 131 80.0771 125.5C80.0771 120 88.5771 127.5 96.5771 133L104.077 141V170.5C102.744 173.833 97.6771 180 88.0771 178Z" fill="#844A4A"/>
<path d="M250.577 95L244.077 54C247.244 52 255.077 46.8 261.077 42C267.077 37.2 287.244 12 296.577 0C298.244 4.33333 302.877 14 308.077 18C313.277 22 310.244 31.6667 308.077 36C314.41 42.1667 327.477 56.1 329.077 62.5L316.077 95C311.744 98 292.577 102.2 250.577 95Z" fill="#844A4A"/>
<path d="M329.077 95L339.077 62.5C345.244 63.6667 360.477 63.6 372.077 54C383.677 44.4 394.244 38 398.077 36C398.41 41.1667 399.377 52.9 400.577 58.5C402.077 65.5 405.077 86 405.577 90.5C406.077 95 389.577 110.5 385.577 118C381.577 125.5 350.077 111 329.077 95Z" fill="#844A4A"/>
<path d="M398.077 125.5L413.077 95C427.244 94 459.477 89.7 475.077 80.5C472.244 83.5 466.777 93.1 467.577 107.5C468.377 121.9 465.244 134.167 463.577 138.5C457.577 139.833 444.577 144 440.577 150C435.077 150.5 418.877 146.3 398.077 125.5Z" fill="#844A4A"/>
<path d="M483.077 188L503.577 170.5C501.91 161.5 499.577 139.9 503.577 125.5C497.91 129.833 484.277 138.5 475.077 138.5C465.877 138.5 454.244 154.833 449.577 163C453.91 167.333 466.677 178.4 483.077 188Z" fill="#844A4A"/>
<path d="M121.077 236.5C112.077 252.5 92.6772 287.5 91.0772 295.5C89.0772 305.5 88.5772 331 84.5772 336.5C81.3772 340.9 103.911 337 115.577 334.5C115.744 325 117.777 304.3 124.577 297.5C133.077 289 149.577 280.5 152.577 274C154.977 268.8 153.577 259 152.577 255.5L121.077 236.5Z" fill="#856E6E"/>
<path d="M331.077 294.5C338.744 294.167 358.077 297.7 370.077 310.5C382.077 323.3 389.41 333.167 391.577 336.5L375.577 361.5L410.077 355C414.577 352.833 423.177 345.7 421.577 334.5C419.977 323.3 406.577 289.5 400.077 274C411.244 270.167 434.777 257.3 441.577 242.5L413.077 238L395.577 236L362.077 264L345.077 279L331.077 294.5Z" fill="#856E6E"/>
<path d="M530.077 211.5C529.91 203.333 530.177 184.2 532.577 173C536.244 185.833 544.677 212.8 549.077 218C553.477 223.2 538.244 215.833 530.077 211.5Z" fill="#830B0B"/>
<path d="M549.077 211.5C560.41 201.5 583.777 180.5 586.577 176.5C590.077 171.5 575.577 214 569.577 218C564.777 221.2 553.91 215 549.077 211.5Z" fill="#830B0B"/>
</svg>
