<svg width="581" height="345" viewBox="0 0 581 345" fill="none" xmlns="http://www.w3.org/2000/svg">
<path d="M535.413 37.8264H524.413C531.613 45.4264 531.079 50.6597 529.913 52.3264C534.313 47.9264 535.413 40.8264 535.413 37.8264Z" fill="#9B5A5A"/>
<path d="M520.329 89.3981L513.131 83.1956C521.892 82.5555 524.332 79.0184 524.457 77.3299C524.991 82.5319 521.928 87.5429 520.329 89.3981Z" fill="#9B5A5A"/>
<path d="M528.611 94.9959L521.413 88.7933C530.174 88.1533 532.614 84.6162 532.738 82.9277C533.273 88.1297 530.209 93.1407 528.611 94.9959Z" fill="#9B5A5A"/>
<path d="M537.611 101.996L530.413 95.7933C539.174 95.1533 541.614 91.6162 541.738 89.9277C542.273 95.1297 539.209 100.141 537.611 101.996Z" fill="#9B5A5A"/>
<path d="M547.611 106.996L540.413 100.793C549.174 100.153 551.614 96.6162 551.738 94.9277C552.273 100.13 549.209 105.141 547.611 106.996Z" fill="#9B5A5A"/>
<path d="M557.611 111.996L550.413 105.793C559.174 105.153 561.614 101.616 561.738 99.9277C562.273 105.13 559.209 110.141 557.611 111.996Z" fill="#9B5A5A"/>
<path d="M546.413 36.8264H535.413C542.613 44.4264 542.079 49.6597 540.913 51.3264C545.313 46.9264 546.413 39.8264 546.413 36.8264Z" fill="#9B5A5A"/>
<path d="M557.413 35.8264H546.413C553.613 43.4264 553.079 48.6597 551.913 50.3264C556.313 45.9264 557.413 38.8264 557.413 35.8264Z" fill="#9B5A5A"/>
<path d="M567.413 32.8264H556.413C563.613 40.4264 563.079 45.6597 561.913 47.3264C566.313 42.9264 567.413 35.8264 567.413 32.8264Z" fill="#9B5A5A"/>
<path d="M576.413 29.8264H565.413C572.613 37.4264 572.079 42.6597 570.913 44.3264C575.313 39.9264 576.413 32.8264 576.413 29.8264Z" fill="#9B5A5A"/>
<path d="M144.913 163.826C148.079 167.66 155.213 175.826 158.413 177.826C162.413 180.326 170.413 181.826 174.413 182.326C178.413 182.826 198.413 187.326 202.413 189.826C205.613 191.826 212.079 197.993 214.913 200.826C206.579 205.66 189.113 216.026 185.913 218.826C181.913 222.326 149.913 231.326 147.413 236.326C144.913 241.326 129.913 269.326 128.913 277.326C127.913 285.326 126.413 299.326 132.413 307.326C137.213 313.726 141.079 320.326 142.413 322.826L184.413 321.326C176.913 316.993 162.013 306.326 162.413 298.326C162.913 288.326 163.913 265.326 165.913 260.826C167.513 257.226 172.246 252.993 174.413 251.326H205.413L214.913 239.326L225.413 198.826L227.913 177.826L144.913 163.826Z" fill="#5E7552"/>
<path d="M396.413 137.326C393.079 142.493 386.913 153.926 388.913 158.326C391.413 163.826 407.913 173.326 411.913 172.326C415.913 171.326 428.413 166.326 431.913 172.326C434.713 177.126 433.079 186.993 431.913 191.326C430.579 188.326 426.313 182.226 419.913 181.826C411.913 181.326 392.412 184.326 388.913 178.326C386.113 173.526 377.079 164.993 372.913 161.326L396.413 137.326Z" fill="#5E7552"/>
<path d="M498.913 47.3264C503.413 44.1597 515.413 38.0264 527.413 38.8264C542.413 39.8264 571.413 33.3264 578.413 27.8264C585.413 22.3264 572.913 0.826358 565.413 0.826358C557.913 0.826358 491.913 6.32636 466.413 0.826358C440.913 -4.67364 415.913 18.3264 396.413 38.8264C376.913 59.3264 388.913 55.8264 335.413 47.3264C292.613 40.5264 267.246 50.493 259.913 56.3264H217.413C171.413 56.3264 137.413 92.8264 123.413 95.8264C109.413 98.8264 8.9126 124.826 4.4126 140.326C-0.0873985 155.826 -5.5874 184.826 12.9126 196.326C27.5169 205.405 66.0423 220.098 84.1939 226.571C54.8707 216.089 1.95618 191.593 19.4126 175.326C37.0126 158.926 70.4126 162.493 84.9126 166.326H142.913C155.413 167.493 184.113 170.926 198.913 175.326C213.713 179.726 222.413 182.826 224.913 183.826C222.413 191.66 217.413 209.926 217.413 220.326C217.413 230.726 205.079 252.993 198.913 262.826C200.413 271.66 204.013 292.326 206.413 304.326C208.813 316.326 207.413 327.993 206.413 332.326L224.913 341.326L228.413 329.326C238.413 333.993 259.513 342.226 263.913 337.826C268.313 333.426 280.413 330.326 285.913 329.326C278.413 324.66 259.913 314.226 245.913 309.826C237.746 306.16 222.113 292.726 224.913 268.326C228.413 237.826 250.413 240.326 263.913 207.826C265.579 201.993 271.413 190.226 281.413 189.826C293.913 189.326 349.413 171.326 367.913 166.326C382.713 162.326 396.746 142.326 401.913 132.826C423.246 126.493 466.813 110.826 470.413 98.8264C482.913 101.826 510.513 109.126 520.913 114.326C533.913 120.826 551.913 127.326 560.913 109.826C547.246 103.993 519.013 89.9264 515.413 80.3264C511.813 70.7264 502.913 54.3264 498.913 47.3264Z" fill="#789968"/>
<path d="M470.413 98.8264C465.079 95.3264 452.513 84.4263 450.913 76.8263C449.313 69.2263 448.913 55.993 448.913 50.3263C447.413 50.1597 443.613 50.5263 440.413 53.3263C437.213 56.1263 439.079 71.1597 440.413 78.3264C444.079 84.493 452.136 96.0674 454.413 96.8263C457.413 97.8264 458.913 102.826 467.913 102.826L470.413 98.8264Z" fill="#4B663D"/>
<path d="M221.413 332.326C223.079 330.993 226.713 328.726 227.913 330.326C229.113 331.926 229.746 336.326 229.913 338.326L227.913 344.826C226.246 343.66 222.613 339.526 221.413 332.326Z" fill="#4B663D"/>
<path d="M258.913 327.826C259.579 326.493 261.413 323.726 263.413 323.326C265.413 322.926 271.246 327.826 273.913 330.326V338.326C268.913 335.66 258.913 329.826 258.913 327.826Z" fill="#4B663D"/>
<path d="M274.479 322.457C278.115 322.622 285.939 323.54 288.142 325.895L290.525 329.441C286.487 329.029 277.926 328.319 275.98 328.781C274.034 329.243 274.168 324.757 274.479 322.457Z" fill="#4B663D"/>
</svg>
