<svg width="539" height="333" viewBox="0 0 539 333" fill="none" xmlns="http://www.w3.org/2000/svg">
<path d="M495.079 244.206C497.746 233.039 500.279 207.806 489.079 196.206C475.079 181.706 468.579 138.206 467.579 130.706C466.579 123.206 428.579 115.206 421.579 78.2056C415.979 48.6056 419.246 21.5389 421.579 11.7056C407.412 2.87228 375.879 -9.49438 363.079 11.7056C347.079 38.2056 328.579 62.7056 327.579 78.2056C321.079 66.2056 290.879 41.0056 222.079 36.2056C153.279 31.4056 112.746 77.8723 101.079 101.706C84.579 114.706 41.279 132.906 0.0789822 101.706C-1.25435 121.372 13.779 166.506 84.579 189.706C86.9123 195.539 90.1789 214.606 84.579 244.206C77.5791 281.206 87.0792 321.206 94.0791 326.206C99.679 330.206 123.079 331.872 134.079 332.206C128.912 328.539 118.579 314.006 118.579 285.206C118.579 256.406 134.912 232.872 143.079 224.706C155.079 233.872 183.379 252.006 200.579 251.206C217.779 250.406 232.412 246.206 237.579 244.206C238.579 258.039 242.179 287.806 248.579 296.206C254.979 304.606 264.246 323.706 268.079 332.206H304.079L281.579 296.206C278.246 287.539 273.579 268.306 281.579 260.706C289.579 253.106 309.912 241.872 319.079 237.206C324.412 228.206 340.679 210.606 363.079 212.206C391.079 214.206 420.079 219.206 429.579 231.706C439.079 244.206 457.579 260.706 462.579 260.706C467.579 260.706 478.579 276.206 495.079 244.206Z" fill="#C4C4C4"/>
<path d="M447.579 115.206C455.579 108.706 473.979 95.0056 483.579 92.2056C493.179 89.4056 519.912 76.7056 532.079 70.7056C522.412 81.539 501.679 104.406 496.079 109.206C490.479 114.006 467.412 125.539 456.579 130.706L447.579 115.206Z" fill="#594D4D"/>
<path d="M151.579 230.706C147.246 244.706 139.879 275.506 145.079 286.706C151.579 300.706 158.579 311.206 157.079 318.706C155.879 324.706 152.912 330.206 151.579 332.206H194.079C190.579 327.872 183.879 313.506 185.079 290.706C186.279 267.906 189.912 254.206 191.579 250.206C178.054 245.134 167.091 239.229 160.079 235.706C154.648 232.977 151.579 232.277 151.579 230.706Z" fill="#868585"/>
<path d="M309.579 241.706C317.079 247.372 333.679 261.906 340.079 274.706C348.079 290.706 368.579 305.706 374.579 307.706C380.579 309.706 387.079 322.206 388.079 327.206H420.079C414.412 316.372 401.579 293.906 395.579 290.706C388.079 286.706 379.079 271.206 381.579 264.706C384.079 258.206 388.079 248.206 388.079 230.706C385.912 228.039 381.579 220.806 381.579 213.206C374.079 211.872 357.443 210.722 349.579 213.206C340.079 216.206 328.079 223.706 322.579 230.706C318.179 236.306 312.079 240.372 309.579 241.706Z" fill="#868585"/>
<path d="M451.079 124.706C459.412 117.872 478.979 103.906 490.579 102.706C502.179 101.506 527.412 86.539 538.579 79.2056C531.246 88.539 515.479 108.106 511.079 111.706C505.579 116.206 471.579 136.706 468.579 141.206C465.579 145.706 447.579 137.706 451.079 124.706Z" fill="#7E6E6E"/>
<path d="M490.579 198.706C495.579 199.872 508.879 201.506 522.079 198.706C520.579 204.539 513.479 216.306 497.079 216.706C493.746 214.539 487.779 207.906 490.579 198.706Z" fill="#7E6E6E"/>
<path d="M310.079 61.2056L320.079 68.7056L327.579 77.2056C325.079 101.872 319.079 147.006 325.079 158.206C331.079 169.406 335.246 177.539 336.579 180.206C327.079 173.372 308.079 157.706 308.079 149.706C308.079 139.706 304.579 90.7056 310.079 61.2056Z" fill="#959191"/>
</svg>
